<svg width="84" height="23" viewBox="0 0 84 23" fill="none" xmlns="http://www.w3.org/2000/svg">
<path d="M2.67347 3.936L3.22547 0.551999H7.11347L6.58547 3.936H2.67347ZM0.561469 18L2.43347 6.216H6.05747L4.18547 18H0.561469ZM6.98334 18L8.85534 6.216H12.4073L12.1193 8.016C12.9833 6.656 14.3113 5.976 16.1033 5.976C17.3833 5.976 18.3593 6.376 19.0313 7.176C19.7193 7.976 19.9273 9.248 19.6553 10.992L18.5513 18H14.9273L16.0073 11.064C16.2633 9.544 15.7753 8.784 14.5433 8.784C13.7273 8.784 13.0713 9.048 12.5753 9.576C12.0793 10.088 11.7593 10.8 11.6153 11.712L10.6073 18H6.98334ZM23.3688 3.936L23.9208 0.551999H27.8088L27.2808 3.936H23.3688ZM21.2568 18L23.1288 6.216H26.7528L24.8808 18H21.2568Z" fill="black" fill-opacity="0.6"/>
<path d="M27.9907 18L30.6787 1.08H34.3987L32.2147 14.856H40.0387L39.5347 18H27.9907ZM47.4393 18.264C45.6153 18.264 44.1913 17.776 43.1673 16.8C42.1593 15.808 41.6553 14.488 41.6553 12.84C41.6553 11.384 41.9673 10.144 42.5913 9.12C43.2153 8.096 44.0393 7.32 45.0633 6.792C46.1033 6.248 47.2153 5.976 48.3993 5.976C50.2233 5.976 51.6473 6.472 52.6713 7.464C53.6953 8.44 54.2073 9.744 54.2073 11.376C54.2073 12.848 53.8873 14.096 53.2473 15.12C52.6233 16.144 51.7993 16.928 50.7753 17.472C49.7513 18 48.6393 18.264 47.4393 18.264ZM47.5353 15.552C48.4793 15.552 49.2153 15.144 49.7433 14.328C50.2873 13.512 50.5593 12.488 50.5593 11.256C50.5593 10.424 50.3593 9.792 49.9593 9.36C49.5593 8.912 49.0153 8.688 48.3273 8.688C47.3673 8.688 46.6233 9.096 46.0953 9.912C45.5673 10.728 45.3033 11.744 45.3033 12.96C45.3033 13.792 45.4953 14.432 45.8793 14.88C46.2793 15.328 46.8313 15.552 47.5353 15.552ZM61.2361 22.584C60.0521 22.584 58.9641 22.448 57.9721 22.176C56.9961 21.904 56.1001 21.504 55.2841 20.976L56.3641 18.504C57.0361 18.92 57.7321 19.248 58.4521 19.488C59.1721 19.744 59.9241 19.872 60.7081 19.872C61.6201 19.872 62.3561 19.68 62.9161 19.296C63.4921 18.912 63.8521 18.28 63.9961 17.4L64.2361 15.912C63.8361 16.504 63.3081 16.952 62.6521 17.256C61.9961 17.56 61.2841 17.712 60.5161 17.712C59.0921 17.712 57.9481 17.288 57.0841 16.44C56.2201 15.576 55.7881 14.384 55.7881 12.864C55.7881 11.616 56.0361 10.472 56.5321 9.432C57.0281 8.376 57.7241 7.536 58.6201 6.912C59.5321 6.288 60.5881 5.976 61.7881 5.976C62.6201 5.976 63.3561 6.152 63.9961 6.504C64.6521 6.84 65.1321 7.344 65.4361 8.016L65.7241 6.216H69.2761L67.5241 17.208C67.2681 18.92 66.6121 20.24 65.5561 21.168C64.5161 22.112 63.0761 22.584 61.2361 22.584ZM61.6921 15C62.3481 15 62.9081 14.816 63.3721 14.448C63.8361 14.08 64.1881 13.6 64.4281 13.008C64.6841 12.4 64.8121 11.744 64.8121 11.04C64.8121 10.32 64.6121 9.752 64.2121 9.336C63.8121 8.904 63.2441 8.688 62.5081 8.688C61.8521 8.688 61.2921 8.872 60.8281 9.24C60.3801 9.592 60.0361 10.072 59.7961 10.68C59.5561 11.272 59.4361 11.928 59.4361 12.648C59.4201 13.368 59.6121 13.944 60.0121 14.376C60.4121 14.792 60.9721 15 61.6921 15ZM76.3377 18.264C74.5137 18.264 73.0897 17.776 72.0657 16.8C71.0577 15.808 70.5537 14.488 70.5537 12.84C70.5537 11.384 70.8657 10.144 71.4897 9.12C72.1137 8.096 72.9377 7.32 73.9617 6.792C75.0017 6.248 76.1137 5.976 77.2977 5.976C79.1217 5.976 80.5457 6.472 81.5697 7.464C82.5937 8.44 83.1057 9.744 83.1057 11.376C83.1057 12.848 82.7857 14.096 82.1457 15.12C81.5217 16.144 80.6977 16.928 79.6737 17.472C78.6497 18 77.5377 18.264 76.3377 18.264ZM76.4337 15.552C77.3777 15.552 78.1137 15.144 78.6417 14.328C79.1857 13.512 79.4577 12.488 79.4577 11.256C79.4577 10.424 79.2577 9.792 78.8577 9.36C78.4577 8.912 77.9137 8.688 77.2257 8.688C76.2657 8.688 75.5217 9.096 74.9937 9.912C74.4657 10.728 74.2017 11.744 74.2017 12.96C74.2017 13.792 74.3937 14.432 74.7777 14.88C75.1777 15.328 75.7297 15.552 76.4337 15.552Z" fill="#20BA64"/>
</svg>
